<?xml version="1.0" standalone="no"?>
<!DOCTYPE svg PUBLIC "-//W3C//DTD SVG 20010904//EN"
 "http://www.w3.org/TR/2001/REC-SVG-20010904/DTD/svg10.dtd">
<svg version="1.0" xmlns="http://www.w3.org/2000/svg"
 width="53.000000pt" height="53.000000pt" viewBox="0 0 53.000000 53.000000"
 preserveAspectRatio="xMidYMid meet">
<metadata>
Created by potrace 1.16, written by Peter Selinger 2001-2019
</metadata>
<g transform="translate(0.000000,53.000000) scale(0.100000,-0.100000)"
fill="#000000" stroke="none">
<path d="M140 163 c-1 -29 -3 -34 -10 -22 -7 12 -25 17 -65 18 l-55 0 0 -39
c0 -29 4 -40 15 -40 9 0 15 10 15 26 0 14 4 23 10 19 6 -3 10 -15 10 -26 0
-30 28 -23 33 9 l4 27 2 -27 c1 -25 5 -28 36 -28 20 0 35 5 35 12 0 7 6 6 18
-4 22 -19 151 -16 163 4 6 9 9 9 9 1 0 -15 32 -25 54 -17 10 4 15 13 12 20 -3
8 1 14 8 14 21 0 25 -23 7 -37 -14 -11 -14 -14 -2 -22 28 -18 50 6 75 87 10
30 -22 30 -33 0 -8 -21 -8 -21 -13 -1 -4 17 -14 21 -51 21 -26 1 -50 -4 -54
-11 -5 -8 -10 -1 -13 18 -6 35 -40 49 -40 16 0 -28 -36 -28 -43 -1 -3 11 -12
20 -21 20 -9 0 -16 -8 -16 -20 0 -13 -7 -20 -20 -20 -11 0 -24 -8 -28 -17 -5
-14 -8 -9 -12 16 -7 49 -30 53 -30 4z"/>
</g>
</svg>
